ffmpeg started on 2026-04-01 at 13:13:59
Report written to "D:\Convert\FFMetrics\reports\ssim_report-6.txt"
Log level: 32
Command line:
ffmpeg -hide_banner -nostdin -r 24000/1001 -i "F:\\Convert\\files\\[DC] Make Heroine ga Oosugiru - 07_Telegram_HEVC(300).mkv" -r 24000/1001 -i "F:\\Convert\\files\\[DC] Make Heroine ga Oosugiru - 07_Telegram.mp4" -lavfi "[0:v]settb=AVTB,setpts=PTS-STARTPTS,format=pix_fmts=yuv420p10le,fps=24000/1001,scale=1920:1080:flags=lanczos:param0=3:out_range=limited:out_color_matrix=bt709:out_chroma_loc=left,setsar=1/1,setdar=(1920/1080)*(1/1),colorspace=format=yuv420p10:range=tv:primaries=bt709:trc=bt709:space=bt709:fast=0[main];[1:v]settb=AVTB,setpts=PTS-STARTPTS,format=pix_fmts=yuv420p,fps=24000/1001,scale=1920:1080:flags=lanczos:param0=3:out_range=limited:out_color_matrix=bt709:out_chroma_loc=left,setsar=1/1,setdar=(1920/1080)*(1/1),colorspace=format=yuv420p:range=tv:primaries=bt709:trc=bt709:space=bt709:fast=0[ref];[main][ref]ssim=eof_action=endall:stats_file='D\\:/Convert/FFMetrics/logs/ssim_logfile-6.txt'" -f null -
Input #0, matroska,webm, from 'F:\Convert\files\[DC] Make Heroine ga Oosugiru - 07_Telegram_HEVC(300).mkv':
  Metadata:
    COMPATIBLE_BRANDS: isomiso2avc1mp41
    MAJOR_BRAND     : isom
    MINOR_VERSION   : 512
    ENCODER         : Lavf61.7.100
  Duration: 00:24:06.79, start: -0.021000, bitrate: 961 kb/s
  Stream #0:0: Video: hevc (Main 10), yuv420p10le(tv, bt709, progressive), 1920x1080 [SAR 1:1 DAR 16:9], 23.98 fps, 23.98 tbr, 1k tbn (default)
      Metadata:
        HANDLER_NAME    : VideoHandler
        VENDOR_ID       : [0][0][0][0]
        ENCODER         : Lavc61.19.100 libx265
        BPS             : 764639
        DURATION        : 00:24:06.569708333
        NUMBER_OF_FRAMES: 34683
        NUMBER_OF_BYTES : 138262933
        _STATISTICS_WRITING_APP: mkvpropedit v94.0 ('Initiate') 64-bit
        _STATISTICS_WRITING_DATE_UTC: 2026-03-31 09:10:10
        _STATISTICS_TAGS: BPS DURATION NUMBER_OF_FRAMES NUMBER_OF_BYTES
  Stream #0:1: Audio: aac (LC), 48000 Hz, stereo, fltp (default)
      Metadata:
        HANDLER_NAME    : SoundHandler
        VENDOR_ID       : [0][0][0][0]
        ENCODER         : Lavc61.19.100 aac
        BPS             : 193194
        DURATION        : 00:24:06.784000000
        NUMBER_OF_FRAMES: 67819
        NUMBER_OF_BYTES : 34938755
        _STATISTICS_WRITING_APP: mkvpropedit v94.0 ('Initiate') 64-bit
        _STATISTICS_WRITING_DATE_UTC: 2026-03-31 09:10:10
        _STATISTICS_TAGS: BPS DURATION NUMBER_OF_FRAMES NUMBER_OF_BYTES
Input #1, mov,mp4,m4a,3gp,3g2,mj2, from 'F:\Convert\files\[DC] Make Heroine ga Oosugiru - 07_Telegram.mp4':
  Metadata:
    major_brand     : isom
    minor_version   : 512
    compatible_brands: isomiso2avc1mp41
    encoder         : Lavf60.16.100
  Duration: 00:24:06.74, start: 0.000000, bitrate: 3764 kb/s
  Stream #1:0[0x1](und): Video: h264 (High) (avc1 / 0x31637661), yuv420p(tv, bt709, progressive), 1920x1080 [SAR 1:1 DAR 16:9], 3616 kb/s, 23.98 fps, 23.98 tbr, 24k tbn (default)
      Metadata:
        handler_name    : VideoHandler
        vendor_id       : [0][0][0][0]
        encoder         : Lavc60.31.102 h264_qsv
  Stream #1:1[0x2](und): Audio: aac (HE-AACv2) (mp4a / 0x6134706D), 48000 Hz, stereo, fltp, 144 kb/s (default)
      Metadata:
        handler_name    : SoundHandler
        vendor_id       : [0][0][0][0]
Stream mapping:
  Stream #0:0 (hevc) -> settb:default
  Stream #1:0 (h264) -> settb:default
  ssim:default -> Stream #0:0 (wrapped_avframe)
  Stream #0:1 -> #0:1 (aac (native) -> pcm_s16le (native))
Output #0, null, to 'pipe:':
  Metadata:
    COMPATIBLE_BRANDS: isomiso2avc1mp41
    MAJOR_BRAND     : isom
    MINOR_VERSION   : 512
    encoder         : Lavf61.7.100
  Stream #0:0: Video: wrapped_avframe, yuv420p10le(tv, bt709, progressive), 1920x1080 [SAR 1:1 DAR 16:9], q=2-31, 200 kb/s, 23.98 fps, 23.98 tbn
      Metadata:
        encoder         : Lavc61.19.100 wrapped_avframe
  Stream #0:1: Audio: pcm_s16le, 48000 Hz, stereo, s16, 1536 kb/s (default)
      Metadata:
        HANDLER_NAME    : SoundHandler
        VENDOR_ID       : [0][0][0][0]
        _STATISTICS_TAGS: BPS DURATION NUMBER_OF_FRAMES NUMBER_OF_BYTES
        BPS             : 193194
        DURATION        : 00:24:06.784000000
        NUMBER_OF_FRAMES: 67819
        NUMBER_OF_BYTES : 34938755
        _STATISTICS_WRITING_APP: mkvpropedit v94.0 ('Initiate') 64-bit
        _STATISTICS_WRITING_DATE_UTC: 2026-03-31 09:10:10
        encoder         : Lavc61.19.100 pcm_s16le
frame=  130 fps=0.0 q=-0.0 size=N/A time=00:00:05.42 bitrate=N/A speed=10.7x    frame=  323 fps=317 q=-0.0 size=N/A time=00:00:13.47 bitrate=N/A speed=13.2x    frame=  522 fps=338 q=-0.0 size=N/A time=00:00:21.77 bitrate=N/A speed=14.1x    frame=  713 fps=347 q=-0.0 size=N/A time=00:00:29.73 bitrate=N/A speed=14.5x    frame=  896 fps=349 q=-0.0 size=N/A time=00:00:37.37 bitrate=N/A speed=14.6x    frame= 1057 fps=342 q=-0.0 size=N/A time=00:00:44.08 bitrate=N/A speed=14.3x    frame= 1219 fps=338 q=-0.0 size=N/A time=00:00:50.84 bitrate=N/A speed=14.1x    frame= 1393 fps=338 q=-0.0 size=N/A time=00:00:58.09 bitrate=N/A speed=14.1x    frame= 1550 fps=334 q=-0.0 size=N/A time=00:01:04.64 bitrate=N/A speed=13.9x    frame= 1707 fps=331 q=-0.0 size=N/A time=00:01:11.19 bitrate=N/A speed=13.8x    frame= 1879 fps=332 q=-0.0 size=N/A time=00:01:18.36 bitrate=N/A speed=13.8x    frame= 2043 fps=330 q=-0.0 size=N/A time=00:01:25.21 bitrate=N/A speed=13.8x    frame= 2158 fps=322 q=-0.0 size=N/A time=00:01:30.00 bitrate=N/A speed=13.4x    frame= 2320 fps=322 q=-0.0 size=N/A time=00:01:36.80 bitrate=N/A speed=13.4x    frame= 2464 fps=318 q=-0.0 size=N/A time=00:01:42.76 bitrate=N/A speed=13.3x    frame= 2605 fps=316 q=-0.0 size=N/A time=00:01:48.65 bitrate=N/A speed=13.2x    frame= 2784 fps=318 q=-0.0 size=N/A time=00:01:56.11 bitrate=N/A speed=13.3x    frame= 2962 fps=319 q=-0.0 size=N/A time=00:02:03.54 bitrate=N/A speed=13.3x    frame= 3150 fps=322 q=-0.0 size=N/A time=00:02:11.38 bitrate=N/A speed=13.4x    frame= 3356 fps=325 q=-0.0 size=N/A time=00:02:19.97 bitrate=N/A speed=13.6x    frame= 3559 fps=329 q=-0.0 size=N/A time=00:02:28.43 bitrate=N/A speed=13.7x    frame= 3752 fps=331 q=-0.0 size=N/A time=00:02:36.48 bitrate=N/A speed=13.8x    frame= 3956 fps=334 q=-0.0 size=N/A time=00:02:44.99 bitrate=N/A speed=13.9x    frame= 4144 fps=335 q=-0.0 size=N/A time=00:02:52.83 bitrate=N/A speed=  14x    frame= 4348 fps=337 q=-0.0 size=N/A time=00:03:01.34 bitrate=N/A speed=14.1x    frame= 4534 fps=338 q=-0.0 size=N/A time=00:03:09.10 bitrate=N/A speed=14.1x    frame= 4721 fps=339 q=-0.0 size=N/A time=00:03:16.90 bitrate=N/A speed=14.1x    frame= 4917 fps=341 q=-0.0 size=N/A time=00:03:25.07 bitrate=N/A speed=14.2x    frame= 5112 fps=342 q=-0.0 size=N/A time=00:03:33.21 bitrate=N/A speed=14.3x    frame= 5299 fps=343 q=-0.0 size=N/A time=00:03:41.01 bitrate=N/A speed=14.3x    frame= 5499 fps=344 q=-0.0 size=N/A time=00:03:49.35 bitrate=N/A speed=14.3x    frame= 5687 fps=345 q=-0.0 size=N/A time=00:03:57.19 bitrate=N/A speed=14.4x    frame= 5880 fps=346 q=-0.0 size=N/A time=00:04:05.24 bitrate=N/A speed=14.4x    frame= 6070 fps=346 q=-0.0 size=N/A time=00:04:13.16 bitrate=N/A speed=14.4x    frame= 6257 fps=347 q=-0.0 size=N/A time=00:04:20.96 bitrate=N/A speed=14.5x    frame= 6448 fps=347 q=-0.0 size=N/A time=00:04:28.93 bitrate=N/A speed=14.5x    frame= 6649 fps=349 q=-0.0 size=N/A time=00:04:37.31 bitrate=N/A speed=14.5x    frame= 6846 fps=350 q=-0.0 size=N/A time=00:04:45.53 bitrate=N/A speed=14.6x    frame= 7038 fps=350 q=-0.0 size=N/A time=00:04:53.54 bitrate=N/A speed=14.6x    frame= 7227 fps=350 q=-0.0 size=N/A time=00:05:01.42 bitrate=N/A speed=14.6x    frame= 7415 fps=351 q=-0.0 size=N/A time=00:05:09.26 bitrate=N/A speed=14.6x    frame= 7606 fps=351 q=-0.0 size=N/A time=00:05:17.23 bitrate=N/A speed=14.6x    frame= 7783 fps=351 q=-0.0 size=N/A time=00:05:24.61 bitrate=N/A speed=14.6x    frame= 7980 fps=352 q=-0.0 size=N/A time=00:05:32.83 bitrate=N/A speed=14.7x    frame= 8170 fps=352 q=-0.0 size=N/A time=00:05:40.75 bitrate=N/A speed=14.7x    frame= 8356 fps=352 q=-0.0 size=N/A time=00:05:48.51 bitrate=N/A speed=14.7x    frame= 8553 fps=353 q=-0.0 size=N/A time=00:05:56.73 bitrate=N/A speed=14.7x    frame= 8748 fps=354 q=-0.0 size=N/A time=00:06:04.86 bitrate=N/A speed=14.7x    frame= 8944 fps=354 q=-0.0 size=N/A time=00:06:13.03 bitrate=N/A speed=14.8x    frame= 9137 fps=354 q=-0.0 size=N/A time=00:06:21.08 bitrate=N/A speed=14.8x    frame= 9324 fps=355 q=-0.0 size=N/A time=00:06:28.88 bitrate=N/A speed=14.8x    frame= 9521 fps=355 q=-0.0 size=N/A time=00:06:37.10 bitrate=N/A speed=14.8x    frame= 9711 fps=355 q=-0.0 size=N/A time=00:06:45.02 bitrate=N/A speed=14.8x    frame= 9899 fps=356 q=-0.0 size=N/A time=00:06:52.87 bitrate=N/A speed=14.8x    frame=10096 fps=356 q=-0.0 size=N/A time=00:07:01.08 bitrate=N/A speed=14.8x    frame=10282 fps=356 q=-0.0 size=N/A time=00:07:08.84 bitrate=N/A speed=14.9x    frame=10469 fps=356 q=-0.0 size=N/A time=00:07:16.64 bitrate=N/A speed=14.9x    frame=10664 fps=357 q=-0.0 size=N/A time=00:07:24.77 bitrate=N/A speed=14.9x    frame=10853 fps=357 q=-0.0 size=N/A time=00:07:32.66 bitrate=N/A speed=14.9x    frame=11042 fps=357 q=-0.0 size=N/A time=00:07:40.54 bitrate=N/A speed=14.9x    frame=11237 fps=357 q=-0.0 size=N/A time=00:07:48.67 bitrate=N/A speed=14.9x    frame=11428 fps=357 q=-0.0 size=N/A time=00:07:56.64 bitrate=N/A speed=14.9x    frame=11621 fps=358 q=-0.0 size=N/A time=00:08:04.69 bitrate=N/A speed=14.9x    frame=11812 fps=358 q=-0.0 size=N/A time=00:08:12.65 bitrate=N/A speed=14.9x    frame=12008 fps=358 q=-0.0 size=N/A time=00:08:20.83 bitrate=N/A speed=14.9x    frame=12204 fps=359 q=-0.0 size=N/A time=00:08:29.00 bitrate=N/A speed=  15x    frame=12398 fps=359 q=-0.0 size=N/A time=00:08:37.09 bitrate=N/A speed=  15x    frame=12597 fps=359 q=-0.0 size=N/A time=00:08:45.39 bitrate=N/A speed=  15x    frame=12784 fps=359 q=-0.0 size=N/A time=00:08:53.19 bitrate=N/A speed=  15x    frame=12980 fps=360 q=-0.0 size=N/A time=00:09:01.37 bitrate=N/A speed=  15x    frame=13164 fps=360 q=-0.0 size=N/A time=00:09:09.04 bitrate=N/A speed=  15x    frame=13356 fps=360 q=-0.0 size=N/A time=00:09:17.05 bitrate=N/A speed=  15x    frame=13532 fps=360 q=-0.0 size=N/A time=00:09:24.39 bitrate=N/A speed=  15x    frame=13730 fps=360 q=-0.0 size=N/A time=00:09:32.65 bitrate=N/A speed=  15x    frame=13926 fps=360 q=-0.0 size=N/A time=00:09:40.83 bitrate=N/A speed=  15x    frame=14118 fps=360 q=-0.0 size=N/A time=00:09:48.83 bitrate=N/A speed=  15x    frame=14309 fps=360 q=-0.0 size=N/A time=00:09:56.80 bitrate=N/A speed=  15x    frame=14501 fps=360 q=-0.0 size=N/A time=00:10:04.81 bitrate=N/A speed=  15x    frame=14695 fps=361 q=-0.0 size=N/A time=00:10:12.90 bitrate=N/A speed=  15x    frame=14885 fps=361 q=-0.0 size=N/A time=00:10:20.82 bitrate=N/A speed=  15x    frame=15065 fps=361 q=-0.0 size=N/A time=00:10:28.33 bitrate=N/A speed=  15x    frame=15239 fps=360 q=-0.0 size=N/A time=00:10:35.59 bitrate=N/A speed=  15x    frame=15428 fps=360 q=-0.0 size=N/A time=00:10:43.47 bitrate=N/A speed=  15x    frame=15620 fps=361 q=-0.0 size=N/A time=00:10:51.48 bitrate=N/A speed=  15x    frame=15819 fps=361 q=-0.0 size=N/A time=00:10:59.78 bitrate=N/A speed=  15x    frame=16011 fps=361 q=-0.0 size=N/A time=00:11:07.79 bitrate=N/A speed=15.1x    frame=16208 fps=361 q=-0.0 size=N/A time=00:11:16.00 bitrate=N/A speed=15.1x    frame=16399 fps=361 q=-0.0 size=N/A time=00:11:23.97 bitrate=N/A speed=15.1x    frame=16590 fps=361 q=-0.0 size=N/A time=00:11:31.94 bitrate=N/A speed=15.1x    frame=16786 fps=362 q=-0.0 size=N/A time=00:11:40.11 bitrate=N/A speed=15.1x    frame=16985 fps=362 q=-0.0 size=N/A time=00:11:48.41 bitrate=N/A speed=15.1x    frame=17182 fps=362 q=-0.0 size=N/A time=00:11:56.63 bitrate=N/A speed=15.1x    frame=17380 fps=362 q=-0.0 size=N/A time=00:12:04.89 bitrate=N/A speed=15.1x    frame=17571 fps=362 q=-0.0 size=N/A time=00:12:12.85 bitrate=N/A speed=15.1x    frame=17756 fps=362 q=-0.0 size=N/A time=00:12:20.57 bitrate=N/A speed=15.1x    frame=17944 fps=362 q=-0.0 size=N/A time=00:12:28.41 bitrate=N/A speed=15.1x    frame=18146 fps=363 q=-0.0 size=N/A time=00:12:36.83 bitrate=N/A speed=15.1x    frame=18316 fps=362 q=-0.0 size=N/A time=00:12:43.92 bitrate=N/A speed=15.1x    frame=18519 fps=363 q=-0.0 size=N/A time=00:12:52.39 bitrate=N/A speed=15.1x    frame=18706 fps=363 q=-0.0 size=N/A time=00:13:00.19 bitrate=N/A speed=15.1x    frame=18907 fps=363 q=-0.0 size=N/A time=00:13:08.57 bitrate=N/A speed=15.1x    frame=19108 fps=363 q=-0.0 size=N/A time=00:13:16.96 bitrate=N/A speed=15.1x    frame=19309 fps=363 q=-0.0 size=N/A time=00:13:25.34 bitrate=N/A speed=15.2x    frame=19504 fps=364 q=-0.0 size=N/A time=00:13:33.47 bitrate=N/A speed=15.2x    frame=19701 fps=364 q=-0.0 size=N/A time=00:13:41.69 bitrate=N/A speed=15.2x    frame=19905 fps=364 q=-0.0 size=N/A time=00:13:50.20 bitrate=N/A speed=15.2x    frame=20102 fps=364 q=-0.0 size=N/A time=00:13:58.42 bitrate=N/A speed=15.2x    frame=20300 fps=364 q=-0.0 size=N/A time=00:14:06.67 bitrate=N/A speed=15.2x    frame=20487 fps=364 q=-0.0 size=N/A time=00:14:14.47 bitrate=N/A speed=15.2x    frame=20661 fps=364 q=-0.0 size=N/A time=00:14:21.73 bitrate=N/A speed=15.2x    frame=20860 fps=364 q=-0.0 size=N/A time=00:14:30.03 bitrate=N/A speed=15.2x    frame=21054 fps=364 q=-0.0 size=N/A time=00:14:38.12 bitrate=N/A speed=15.2x    frame=21250 fps=365 q=-0.0 size=N/A time=00:14:46.30 bitrate=N/A speed=15.2x    frame=21453 fps=365 q=-0.0 size=N/A time=00:14:54.81 bitrate=N/A speed=15.2x    frame=21649 fps=365 q=-0.0 size=N/A time=00:15:02.94 bitrate=N/A speed=15.2x    frame=21840 fps=365 q=-0.0 size=N/A time=00:15:10.91 bitrate=N/A speed=15.2x    frame=22039 fps=365 q=-0.0 size=N/A time=00:15:19.20 bitrate=N/A speed=15.2x    frame=22232 fps=365 q=-0.0 size=N/A time=00:15:27.25 bitrate=N/A speed=15.2x    frame=22423 fps=365 q=-0.0 size=N/A time=00:15:35.22 bitrate=N/A speed=15.2x    frame=22630 fps=366 q=-0.0 size=N/A time=00:15:43.85 bitrate=N/A speed=15.2x    frame=22812 fps=365 q=-0.0 size=N/A time=00:15:51.45 bitrate=N/A speed=15.2x    frame=23005 fps=366 q=-0.0 size=N/A time=00:15:59.50 bitrate=N/A speed=15.2x    frame=23206 fps=366 q=-0.0 size=N/A time=00:16:07.88 bitrate=N/A speed=15.3x    frame=23402 fps=366 q=-0.0 size=N/A time=00:16:16.05 bitrate=N/A speed=15.3x    frame=23602 fps=366 q=-0.0 size=N/A time=00:16:24.40 bitrate=N/A speed=15.3x    frame=23803 fps=366 q=-0.0 size=N/A time=00:16:32.78 bitrate=N/A speed=15.3x    frame=23990 fps=366 q=-0.0 size=N/A time=00:16:40.58 bitrate=N/A speed=15.3x    frame=24183 fps=366 q=-0.0 size=N/A time=00:16:48.63 bitrate=N/A speed=15.3x    frame=24383 fps=366 q=-0.0 size=N/A time=00:16:56.97 bitrate=N/A speed=15.3x    frame=24577 fps=366 q=-0.0 size=N/A time=00:17:05.06 bitrate=N/A speed=15.3x    frame=24769 fps=366 q=-0.0 size=N/A time=00:17:13.07 bitrate=N/A speed=15.3x    frame=24965 fps=367 q=-0.0 size=N/A time=00:17:21.24 bitrate=N/A speed=15.3x    frame=25170 fps=367 q=-0.0 size=N/A time=00:17:29.79 bitrate=N/A speed=15.3x    frame=25366 fps=367 q=-0.0 size=N/A time=00:17:37.97 bitrate=N/A speed=15.3x    frame=25561 fps=367 q=-0.0 size=N/A time=00:17:46.10 bitrate=N/A speed=15.3x    frame=25754 fps=367 q=-0.0 size=N/A time=00:17:54.15 bitrate=N/A speed=15.3x    frame=25956 fps=367 q=-0.0 size=N/A time=00:18:02.58 bitrate=N/A speed=15.3x    frame=26144 fps=367 q=-0.0 size=N/A time=00:18:10.42 bitrate=N/A speed=15.3x    frame=26343 fps=367 q=-0.0 size=N/A time=00:18:18.72 bitrate=N/A speed=15.3x    frame=26545 fps=367 q=-0.0 size=N/A time=00:18:27.14 bitrate=N/A speed=15.3x    frame=26735 fps=368 q=-0.0 size=N/A time=00:18:35.07 bitrate=N/A speed=15.3x    frame=26923 fps=368 q=-0.0 size=N/A time=00:18:42.91 bitrate=N/A speed=15.3x    frame=27108 fps=367 q=-0.0 size=N/A time=00:18:50.62 bitrate=N/A speed=15.3x    frame=27292 fps=367 q=-0.0 size=N/A time=00:18:58.30 bitrate=N/A speed=15.3x    frame=27479 fps=367 q=-0.0 size=N/A time=00:19:06.10 bitrate=N/A speed=15.3x    frame=27677 fps=367 q=-0.0 size=N/A time=00:19:14.36 bitrate=N/A speed=15.3x    frame=27864 fps=367 q=-0.0 size=N/A time=00:19:22.16 bitrate=N/A speed=15.3x    frame=28051 fps=367 q=-0.0 size=N/A time=00:19:29.96 bitrate=N/A speed=15.3x    frame=28246 fps=367 q=-0.0 size=N/A time=00:19:38.09 bitrate=N/A speed=15.3x    frame=28443 fps=368 q=-0.0 size=N/A time=00:19:46.31 bitrate=N/A speed=15.3x    frame=28631 fps=368 q=-0.0 size=N/A time=00:19:54.15 bitrate=N/A speed=15.3x    frame=28814 fps=367 q=-0.0 size=N/A time=00:20:01.78 bitrate=N/A speed=15.3x    frame=28994 fps=367 q=-0.0 size=N/A time=00:20:09.29 bitrate=N/A speed=15.3x    frame=29167 fps=367 q=-0.0 size=N/A time=00:20:16.50 bitrate=N/A speed=15.3x    frame=29341 fps=367 q=-0.0 size=N/A time=00:20:23.76 bitrate=N/A speed=15.3x    frame=29516 fps=367 q=-0.0 size=N/A time=00:20:31.06 bitrate=N/A speed=15.3x    frame=29693 fps=367 q=-0.0 size=N/A time=00:20:38.44 bitrate=N/A speed=15.3x    frame=29867 fps=366 q=-0.0 size=N/A time=00:20:45.70 bitrate=N/A speed=15.3x    frame=30039 fps=366 q=-0.0 size=N/A time=00:20:52.87 bitrate=N/A speed=15.3x    frame=30221 fps=366 q=-0.0 size=N/A time=00:21:00.46 bitrate=N/A speed=15.3x    frame=30406 fps=366 q=-0.0 size=N/A time=00:21:08.18 bitrate=N/A speed=15.3x    frame=30597 fps=366 q=-0.0 size=N/A time=00:21:16.14 bitrate=N/A speed=15.3x    frame=30791 fps=366 q=-0.0 size=N/A time=00:21:24.24 bitrate=N/A speed=15.3x    frame=30977 fps=366 q=-0.0 size=N/A time=00:21:31.99 bitrate=N/A speed=15.3x    frame=31181 fps=366 q=-0.0 size=N/A time=00:21:40.50 bitrate=N/A speed=15.3x    frame=31365 fps=366 q=-0.0 size=N/A time=00:21:48.18 bitrate=N/A speed=15.3x    frame=31554 fps=366 q=-0.0 size=N/A time=00:21:56.06 bitrate=N/A speed=15.3x    frame=31743 fps=366 q=-0.0 size=N/A time=00:22:03.94 bitrate=N/A speed=15.3x    frame=31925 fps=366 q=-0.0 size=N/A time=00:22:11.53 bitrate=N/A speed=15.3x    frame=32115 fps=366 q=-0.0 size=N/A time=00:22:19.46 bitrate=N/A speed=15.3x    frame=32311 fps=366 q=-0.0 size=N/A time=00:22:27.63 bitrate=N/A speed=15.3x    frame=32505 fps=366 q=-0.0 size=N/A time=00:22:35.72 bitrate=N/A speed=15.3x    frame=32667 fps=366 q=-0.0 size=N/A time=00:22:42.48 bitrate=N/A speed=15.3x    frame=32841 fps=366 q=-0.0 size=N/A time=00:22:49.74 bitrate=N/A speed=15.3x    frame=33021 fps=366 q=-0.0 size=N/A time=00:22:57.25 bitrate=N/A speed=15.3x    frame=33201 fps=366 q=-0.0 size=N/A time=00:23:04.75 bitrate=N/A speed=15.2x    frame=33385 fps=366 q=-0.0 size=N/A time=00:23:12.43 bitrate=N/A speed=15.2x    frame=33550 fps=365 q=-0.0 size=N/A time=00:23:19.31 bitrate=N/A speed=15.2x    frame=33706 fps=365 q=-0.0 size=N/A time=00:23:25.82 bitrate=N/A speed=15.2x    frame=33834 fps=364 q=-0.0 size=N/A time=00:23:31.15 bitrate=N/A speed=15.2x    frame=33981 fps=364 q=-0.0 size=N/A time=00:23:37.29 bitrate=N/A speed=15.2x    frame=34151 fps=364 q=-0.0 size=N/A time=00:23:44.38 bitrate=N/A speed=15.2x    frame=34314 fps=363 q=-0.0 size=N/A time=00:23:51.17 bitrate=N/A speed=15.2x    frame=34446 fps=363 q=-0.0 size=N/A time=00:23:56.68 bitrate=N/A speed=15.1x    frame=34629 fps=363 q=-0.0 size=N/A time=00:24:04.31 bitrate=N/A speed=15.1x    [Parsed_ssim_16 @ 000001895cfac1c0] SSIM Y:0.994204 (22.368606) U:0.994304 (22.444372) V:0.993947 (22.180464) All:0.994178 (22.349122)
[out#0/null @ 000001895027dec0] video:14903KiB audio:271276KiB subtitle:0KiB other streams:0KiB global headers:0KiB muxing overhead: unknown
frame=34683 fps=363 q=-0.0 Lsize=N/A time=00:24:06.57 bitrate=N/A speed=15.1x    
